<svg preserveAspectRatio="none" overflow="visible" style="display: block;" width="28" height="28" viewBox="0 0 28 28" fill="none" xmlns="http://www.w3.org/2000/svg">
<g id="Frame 102">
<rect width="28" height="28" rx="8" fill="#F97501"/>
<path id="Vector" fill-rule="evenodd" clip-rule="evenodd" d="M12.2216 5.81836C11.6697 6.45767 11.5739 7.01213 11.5594 7.83784C11.53 7.85025 11.4502 7.88998 11.4228 7.866C11.3539 7.80559 11.2966 7.73793 11.2388 7.66961C11.1821 7.60269 11.125 7.53513 11.0558 7.47313C10.7924 7.23721 10.5993 7.10681 10.2725 6.98291C9.74215 6.78179 9.21167 6.7733 8.67583 6.9622C8.08941 7.16826 7.52123 7.68772 7.2551 8.27998C7.13282 8.54533 7.05343 8.8301 7.02018 9.12266C7.00293 9.26452 7.00366 9.42154 7.00436 9.57001C7.00449 9.59897 7.00462 9.62761 7.00462 9.65575L7.00484 10.3848L7.00478 11.2246V11.2279C7.00472 11.6577 7.00466 12.0466 7.14976 12.4582C7.31757 12.9263 7.61122 13.3335 7.99526 13.6308C8.0589 13.6802 8.12472 13.7265 8.1925 13.7695C8.2267 13.7912 8.26457 13.8115 8.30153 13.8313C8.46967 13.9213 8.61889 14.0012 8.3172 14.1589C8.06822 14.289 7.82487 14.4808 7.63803 14.696C7.29878 15.0899 7.05823 15.6495 7.01539 16.18C6.99529 16.429 6.99928 16.6982 7.00315 16.9597C7.0047 17.0641 7.00622 17.1673 7.0062 17.2675L7.00582 18.1358C7.00582 18.1786 7.00562 18.2215 7.00542 18.2645C7.00387 18.5959 7.0023 18.9326 7.08632 19.2544C7.25511 19.9008 7.70587 20.5194 8.26538 20.8476C8.8392 21.1817 9.51706 21.2608 10.1471 21.0674C10.5589 20.9453 10.994 20.6311 11.2725 20.2947C11.2921 20.2711 11.3084 20.2493 11.3231 20.2298C11.3924 20.1373 11.4226 20.097 11.5664 20.1666C11.5628 20.3892 11.562 20.5697 11.5931 20.7905C11.6183 21.0724 11.7006 21.3454 11.8345 21.5914C11.9785 21.888 12.1304 22.1003 12.3607 22.3278C12.8087 22.7704 13.4948 23.0241 14.1064 22.9982C14.6863 22.9737 15.3401 22.6785 15.7383 22.2341C16.2876 21.6209 16.4573 20.9755 16.4377 20.1562L16.561 20.1198C16.621 20.1629 16.6872 20.2417 16.7471 20.3131C16.7723 20.3431 16.7964 20.3718 16.8184 20.396C18.0227 21.7149 20.1232 21.2802 20.7961 19.6042C20.9879 19.1266 20.9962 18.8443 20.996 18.3377L20.9957 17.565L20.9962 16.7295C20.9962 16.6998 20.9964 16.6691 20.9965 16.6379C20.9972 16.4692 20.998 16.2823 20.9814 16.1244C20.9598 15.9158 20.9118 15.7111 20.8388 15.5156C20.6024 14.8704 20.1297 14.3505 19.5256 14.0715C19.5147 13.9273 19.5415 13.9148 19.6327 13.8719C19.6522 13.8628 19.6747 13.8522 19.7003 13.8387C20.3573 13.4926 20.8092 12.7862 20.959 12.043C21.002 11.8293 21.0006 11.5589 20.9994 11.3252C20.9992 11.2889 20.999 11.2534 20.999 11.2192L20.9992 10.381L21 9.6752C21.0004 9.2357 20.9919 8.97709 20.854 8.55116C20.499 7.45392 19.3421 6.66013 18.2383 6.85087C18.0868 6.87703 17.9629 6.89888 17.8147 6.94443C17.4229 7.07705 17.1093 7.30881 16.808 7.60245C16.772 7.63759 16.7427 7.67753 16.7133 7.71751C16.6681 7.77919 16.6228 7.84094 16.5527 7.88514C16.5468 7.88237 16.5405 7.87935 16.5339 7.87621C16.5063 7.86296 16.4744 7.84764 16.4489 7.83974C16.4197 7.11928 16.3705 6.57648 15.9136 5.98527C15.4169 5.34252 14.7033 4.96108 13.8991 5.00316C13.2589 5.03153 12.6555 5.32473 12.2216 5.81836ZM11.8707 11.3004C12.0145 11.1821 12.0827 11.2799 12.1629 11.395C12.1897 11.4335 12.2179 11.4739 12.2507 11.5088C13.3262 12.6536 15.0321 12.5076 15.955 11.2584C16.1303 11.2241 16.1295 11.286 16.128 11.3986C16.1276 11.4288 16.1271 11.4626 16.13 11.4992C16.1303 11.5272 16.1312 11.5553 16.1321 11.5833C16.1329 11.6089 16.1337 11.6346 16.134 11.66C16.1445 12.3414 16.438 12.9795 16.9094 13.4432C17.0389 13.5814 17.2143 13.6978 17.3727 13.7984C17.3939 13.8119 17.4165 13.8252 17.439 13.8385C17.5919 13.9287 17.7424 14.0175 17.4611 14.1477C17.4494 14.1858 17.4095 14.2764 17.3759 14.2932C17.3442 14.2884 17.3415 14.2852 17.3209 14.261C17.3184 14.2582 17.3158 14.2551 17.3128 14.2516L17.2956 14.2472C16.3982 14.8598 16.1273 15.6334 16.1349 16.7051L16.1317 16.7076C16.0797 16.7475 16.0737 16.7521 16.0118 16.7769C15.9407 16.7147 15.8868 16.6481 15.8314 16.5797C15.8028 16.5444 15.7737 16.5084 15.7418 16.4724C15.6515 16.371 15.5272 16.2674 15.4188 16.1874C14.4864 15.499 13.3175 15.5696 12.437 16.3123C12.3464 16.3897 12.2692 16.4806 12.1921 16.5715C12.1448 16.6272 12.0975 16.6829 12.0471 16.7355C12.0104 16.7739 11.9415 16.7561 11.9037 16.7279C11.8918 16.706 11.8832 16.6839 11.8833 16.6583C11.884 16.4666 11.8826 16.2723 11.8573 16.0816C11.7661 15.3892 11.4118 14.7645 10.8746 14.3494C10.803 14.2948 10.7279 14.2458 10.6497 14.2025C10.6376 14.1959 10.6234 14.1888 10.608 14.1811C10.5126 14.1336 10.3728 14.0638 10.423 13.9504C10.4429 13.9054 10.5332 13.8582 10.6064 13.8199C10.6352 13.8049 10.6615 13.7911 10.6797 13.7795C10.8985 13.6405 11.0962 13.4678 11.266 13.2673C11.7227 12.7299 11.9127 12.0232 11.8715 11.3124L11.8707 11.3004Z" fill="white"/>
</g>
</svg>
